<?xml version="1.0" encoding="UTF-8"?>
<!-- Created with Inkscape (http://www.inkscape.org/) -->
<svg width="348.32mm" height="348.32mm" version="1.1" viewBox="0 0 348.32 348.32" xmlns="http://www.w3.org/2000/svg">
 <defs>
  <clipPath id="clipPath98486-6">
   <path d="m64.42-402.04h146.76v34.275h-146.76z" fill="none" stroke="#000" stroke-linecap="round" stroke-linejoin="round" stroke-width=".10255" style="paint-order:normal"/>
  </clipPath>
  <clipPath id="clipPath98510-5">
   <path d="m64.403-293.87h146.8v15.357h-146.8z" fill="none" stroke="#000" stroke-linecap="round" stroke-linejoin="round" stroke-width=".068651" style="paint-order:normal"/>
  </clipPath>
  <clipPath id="clipPath98506-5">
   <path d="m64.403-311.71h146.8v15.357h-146.8z" fill="none" stroke="#000" stroke-linecap="round" stroke-linejoin="round" stroke-width=".068651" style="paint-order:normal"/>
  </clipPath>
  <clipPath id="clipPath98498-2">
   <path d="m64.403-329.67h146.8v15.357h-146.8z" fill="none" stroke="#000" stroke-linecap="round" stroke-linejoin="round" stroke-width=".068651" style="paint-order:normal"/>
  </clipPath>
  <clipPath id="clipPath98494-1">
   <path d="m64.403-347.37h146.8v15.357h-146.8z" fill="none" stroke="#000" stroke-linecap="round" stroke-linejoin="round" stroke-width=".068651" style="paint-order:normal"/>
  </clipPath>
  <clipPath id="clipPath98490-7">
   <path d="m64.403-365.16h146.8v15.357h-146.8z" fill="none" stroke="#000" stroke-linecap="round" stroke-linejoin="round" stroke-width=".068651" style="paint-order:normal"/>
  </clipPath>
 </defs>
 <g transform="translate(73.366 7.9644)">
  <g transform="translate(-1912.9 1457.5)">
   <circle cx="2013.7" cy="-1291.3" r="156.67" fill="none"/>
   <circle cx="2013.7" cy="-1291.3" r="156.67" fill="none"/>
   <g transform="matrix(1.6264 0 0 1.6264 1848.2 -1520.1)" fill="#ecc411">
    <g fill="#ecc411">
     <path transform="translate(-39.632,459.59)" d="m113.43-339.94c-0.27091-1.4422-0.81279-4.3269-1.4372-6.8174-0.62438-2.4905-1.3313-4.5868-2.2281-6.4217s-1.9836-3.408-2.6788-4.4372-0.99862-1.5144-1.2296-2.2724c-0.23097-0.75801-0.38931-1.7889-0.41709-2.9841-0.0278-1.1952 0.0751-2.5546 0.27879-4.7299 0.20373-2.1753 0.50832-5.1663 0.74046-7.1801 0.23215-2.0138 0.39185-3.0503 0.51834-3.788s0.21978-1.1766 0.38254-1.6815c0.16276-0.50491 0.39503-1.0758 0.65362-1.6027s0.54349-1.0099 0.77153-1.3935c0.22805-0.38362 0.39924-0.66793 0.394-0.97446-5e-3 -0.30653-0.10709-0.98872-0.36138-1.3216-0.25428-0.33292-0.64872-0.56322-0.91894-0.80553-0.27022-0.2423-0.49626-0.14314-0.65006-0.16893-0.15379-0.0258-0.50988 0.16803-0.64718 0.32259s-0.21883 0.26985-0.57848 0.34148c-0.35964 0.0716-0.735 2e-3 -1.3318-0.18225-0.59679-0.18427-1.252-0.48326-1.8596-0.6969-0.60757-0.21365-1.1674-0.34189-1.7203-0.36629s-1.0988 0.0551-1.5203 0.19469c-0.42152 0.13963-0.71851 0.33934-0.97752 0.61618-0.259 0.27683-0.47998 0.63064-0.60537 0.97444-0.12538 0.3438-0.15528 0.67743-0.08666 0.98867 0.06863 0.31124 0.23557 0.6001 0.45604 0.86559 0.22048 0.26549 0.49442 0.50768 0.73469 0.72309 0.24028 0.2154 0.44687 0.40399 0.52462 0.70759 0.07775 0.30359 0.02694 0.72203-0.09499 1.8132-0.12193 1.0912-0.31496 2.855-0.54053 4.6179-0.22556 1.7629-0.48363 3.5249-0.69526 4.9425-0.21163 1.4177-0.3768 2.491-0.51254 3.4045-0.13574 0.91358-0.24206 1.6674-0.3639 2.3027-0.12185 0.63527-0.25919 1.152-0.41937 1.6784s-0.34316 1.0624-0.60493 1.582c-0.26178 0.51963-0.60229 1.023-1.0152 1.5669-0.41291 0.54395-0.8982 1.1285-1.4567 1.7186-0.55851 0.59008-1.1902 1.1857-1.8379 1.8198-0.64766 0.63409-1.3112 1.3066-1.8988 1.9428-0.58753 0.63622-1.099 1.236-1.66 2.0418s-1.1717 1.8174-1.6589 2.7273c-0.48724 0.90992-0.85108 1.718-1.1608 2.6066s-0.56532 1.8574-0.80145 2.9909c-0.23612 1.1336-0.45278 2.4317-0.6463 4.1026-0.19351 1.6709-0.3639 3.7144-0.42001 5.2879-0.0561 1.5735 2e-3 2.6769 0.10409 4.0405 0.10206 1.3636 0.24804 2.9872 0.50406 4.6813 0.25602 1.6942 0.62203 3.4588 0.997 4.9022s0.75883 2.5654 1.4144 4.1206c0.65553 1.5552 1.5826 3.5435 2.3996 5.1848s1.5236 2.9355 2.1702 4.0319c0.64661 1.0964 1.2331 1.995 2.1524 3.2919 0.91927 1.2968 2.1712 2.9918 3.6059 4.6864s3.0521 3.3888 4.6106 4.9148c1.5584 1.526 3.0578 2.8837 4.8395 4.4172s3.8455 3.2427 6.0538 4.9642 4.5611 3.4553 6.9918 5.0886 4.9392 3.1662 7.3453 4.5326 4.7095 2.5666 6.7236 3.5359c2.0141 0.96934 3.7386 1.7079 5.6562 2.4021 1.9176 0.69417 4.028 1.344 5.5423 1.7504s2.4325 0.56962 3.6919 0.83042c1.2594 0.26081 2.86 0.61924 4.3126 0.95343s2.7572 0.64411 4.0748 1.0002c1.3176 0.35614 2.648 0.75844 4.4445 1.1196s4.0588 0.68134 6.4166 0.92416 4.8108 0.40832 6.8142 0.5178 3.557 0.16294 4.9487 0.16127c1.3916-2e-3 2.6213-0.0584 3.9733-0.21565 1.352-0.1572 2.8263-0.41481 4.1346-0.7065s2.4505-0.61745 3.5998-1.007c1.1494-0.38952 2.3058-0.84281 3.3679-1.3655 1.062-0.52265 2.0297-1.1147 2.763-1.5183 0.7333-0.40361 1.2322-0.61872 1.6368-0.92792s0.71492-0.71262 1.1842-1.1759c0.46929-0.46331 1.0975-0.98639 1.5304-1.4218s0.67075-0.78324 0.83526-1.1189c0.1645-0.33563 0.2557-0.65916 0.18669-1.0209-0.069-0.3617-0.29846-0.76155-0.38007-1.1749-0.0816-0.41335-0.0151-0.84019-0.0402-1.1997s-0.14195-0.65161-0.38642-0.81801c-0.24446-0.16639-0.61651-0.20675-0.93533-0.15634-0.31882 0.0504-0.58418 0.19155-0.96928-0.19365-0.38511-0.38521-0.89018-1.297-1.5993-2.149-0.70912-0.85198-1.6223-1.644-2.9495-2.4846-1.3272-0.84063-3.0683-1.7297-5.1582-2.552s-4.5283-1.5777-7.0868-2.2682-5.2369-1.3162-7.8942-1.957-5.2935-1.2966-7.9166-2.0461c-2.6231-0.74949-5.233-1.5926-7.8968-2.6036-2.6638-1.0111-5.3816-2.1902-8.0993-3.3692-2.0377-1.0082-4.0752-2.0164-6.3537-3.2885s-4.7978-2.8082-6.9924-4.2487c-2.1946-1.4404-4.0644-2.7852-5.5924-4.0016s-2.7143-2.3045-3.9172-3.4482c-1.2029-1.1436-2.4224-2.3428-3.6842-3.7724s-2.5658-3.0895-3.6222-4.5183-1.8652-2.6264-2.642-4.0947c-0.77686-1.4683-1.5218-3.2074-2.3593-5.7263s-1.7678-5.8176-2.233-7.4672-0.46519-1.6496-0.73609-3.0918z" clip-path="url(#clipPath98486-6)"/>
     <path transform="translate(-39.632,459.59)" d="m113.42-339.94c-0.2709-1.4422-0.81276-4.3268-1.4372-6.8174-0.62438-2.4906-1.3313-4.5868-2.2281-6.4217-0.89684-1.8348-1.9836-3.408-2.6788-4.4372-0.69513-1.0292-0.9986-1.5144-1.2296-2.2724-0.23097-0.75803-0.3893-1.7889-0.41707-2.9841-0.0278-1.1952 0.0751-2.5546 0.27882-4.7299 0.20373-2.1753 0.50832-5.1663 0.74047-7.1801 0.23214-2.0138 0.39184-3.0503 0.51831-3.7879 0.12646-0.73766 0.21975-1.1766 0.38251-1.6815s0.39506-1.0758 0.65365-1.6027c0.25859-0.52694 0.54349-1.0099 0.77153-1.3935 0.22804-0.38363 0.3992-0.66793 0.39397-0.97445-5e-3 -0.30651-0.18715-0.63533-0.44144-0.96826-0.2543-0.33294-0.58092-0.66979-0.85116-0.91211-0.27023-0.24232-0.48396-0.38993-0.6377-0.4158-0.15373-0.0259-0.24736 0.0704-0.38465 0.22492-0.13728 0.15455-0.3184 0.36756-0.67805 0.43921-0.35964 0.0716-0.89804 2e-3 -1.4948-0.18224-0.5968-0.18428-1.252-0.48327-1.8596-0.69691-0.60757-0.21365-1.1674-0.34188-1.7203-0.36628-0.55296-0.0244-1.0988 0.0551-1.5203 0.19469-0.42152 0.13963-0.71852 0.33934-0.97753 0.61618-0.25901 0.27685-0.47997 0.63066-0.6054 0.97445-0.12543 0.3438-0.15542 0.67743-0.08685 0.98866s0.23549 0.60007 0.45596 0.86557 0.49442 0.50772 0.73468 0.72312c0.24026 0.21539 0.44686 0.40398 0.52461 0.70759 0.07776 0.30362 0.02696 0.72202-0.09495 1.8132-0.12192 1.0912-0.31495 2.855-0.54052 4.6179s-0.48367 3.5249-0.6953 4.9425c-0.21164 1.4176-0.3768 2.491-0.51253 3.4045-0.13573 0.91358-0.24203 1.6674-0.36388 2.3027-0.12185 0.63528-0.25921 1.152-0.41939 1.6784-0.16018 0.52636-0.34314 1.0624-0.60492 1.582s-0.60231 1.023-1.0152 1.5669c-0.41292 0.54394-0.89821 1.1285-1.4567 1.7186s-1.1902 1.1857-1.8378 1.8198c-0.64765 0.63408-1.3112 1.3066-1.8988 1.9428s-1.099 1.236-1.66 2.0418-1.1717 1.8174-1.6589 2.7273c-0.48724 0.90994-0.85106 1.718-1.1608 2.6066-0.30971 0.88852-0.56535 1.8574-0.80147 2.9909-0.23612 1.1336-0.45275 2.4318-0.64626 4.1026-0.1935 1.6709-0.3639 3.7144-0.42001 5.2879s2e-3 2.677 0.10408 4.0405c0.10206 1.3636 0.24802 2.9871 0.50405 4.6813 0.25602 1.6942 0.62205 3.4589 0.99703 4.9022 0.37497 1.4434 0.75884 2.5654 1.4144 4.1206s1.5827 3.5436 2.3996 5.1849c0.81691 1.6413 1.5236 2.9354 2.1702 4.0319 0.64661 1.0964 1.2331 1.995 2.1524 3.2919 0.91928 1.2968 2.1712 2.9918 3.6059 4.6864s3.0521 3.3888 4.6106 4.9148 3.0578 2.8837 4.8395 4.4172 3.8455 3.2426 6.0538 4.9642c2.2083 1.7215 4.561 3.4553 6.9918 5.0886s4.9393 3.1662 7.3453 4.5327 4.7094 2.5666 6.7236 3.5359c2.0141 0.96934 3.7386 1.7079 5.6562 2.402 1.9176 0.69419 4.028 1.344 5.5423 1.7504s2.4325 0.56963 3.6919 0.83044c1.2594 0.2608 2.8599 0.61922 4.3126 0.95341 1.4526 0.3342 2.7572 0.64412 4.0748 1.0002 1.3176 0.35613 2.648 0.75844 4.4445 1.1196 1.7965 0.36122 4.0588 0.68134 6.4166 0.92416s4.8108 0.40832 6.8142 0.5178 3.557 0.16294 4.9486 0.16127c1.3916-2e-3 2.6213-0.0584 3.9733-0.21565 1.352-0.15721 2.8263-0.41481 4.1346-0.70649 1.3083-0.29169 2.4505-0.61744 3.5999-1.007 1.1494-0.38953 2.3059-0.84282 3.3679-1.3655 1.062-0.52265 2.0297-1.1147 2.763-1.5183 0.73328-0.4036 1.2322-0.61872 1.6368-0.92792s0.71491-0.71264 1.1842-1.1759 1.0975-0.98639 1.5304-1.4218c0.43298-0.43541 0.67076-0.78326 0.83525-1.1188s0.25571-0.65919 0.18671-1.0209c-0.069-0.3617-0.29845-0.76152-0.38005-1.1749s-0.0151-0.84017-0.0402-1.1997c-0.0251-0.35949-0.14194-0.65158-0.38643-0.81799-0.24448-0.16641-0.61649-0.20676-0.9353-0.15637-0.31881 0.0504-0.5842 0.19155-0.96931-0.19365-0.38511-0.38519-0.89016-1.297-1.5993-2.149s-1.6223-1.644-2.9495-2.4846c-1.3272-0.84063-3.0683-1.7297-5.1582-2.552-2.0899-0.82229-4.5283-1.5777-7.0868-2.2682-2.5585-0.69055-5.2369-1.3162-7.8942-1.957-2.6573-0.64076-5.2935-1.2966-7.9166-2.0461-2.6231-0.74949-5.233-1.5926-7.8968-2.6037s-5.3816-2.1902-8.0993-3.3692c-2.0377-1.0082-4.0752-2.0163-6.3537-3.2885s-4.7978-2.8083-6.9924-4.2487-4.0643-2.7852-5.5924-4.0016-2.7143-2.3045-3.9172-3.4482-2.4224-2.3428-3.6842-3.7724-2.5658-3.0895-3.6222-4.5183-1.8652-2.6264-2.642-4.0947-1.5218-3.2074-2.3594-5.7263-1.7678-5.8176-2.233-7.4672-0.46487-1.6496-0.73577-3.0918z" clip-path="url(#clipPath98510-5)"/>
     <path transform="translate(-39.632,459.59)" d="m113.43-339.94c-0.27091-1.4422-0.81279-4.3269-1.4372-6.8174-0.62438-2.4905-1.3313-4.5868-2.2281-6.4217s-1.9836-3.408-2.6788-4.4372-0.99861-1.5144-1.2296-2.2724c-0.23097-0.75802-0.3893-1.7889-0.41708-2.9841-0.0278-1.1952 0.0751-2.5546 0.27879-4.7299 0.20372-2.1753 0.50831-5.1663 0.74045-7.1801 0.23215-2.0138 0.39185-3.0503 0.51834-3.788s0.21978-1.1766 0.38254-1.6815c0.16276-0.50491 0.39503-1.0758 0.65362-1.6027s0.54349-1.0099 0.77153-1.3935c0.22805-0.38362 0.39924-0.66793 0.394-0.97446-5e-3 -0.30653-0.18716-0.63535-0.44145-0.96827-0.25428-0.33292-0.58092-0.6698-0.85114-0.91211-0.27022-0.2423-0.48399-0.38993-0.63779-0.41572-0.15379-0.0258-0.24726 0.0703-0.38456 0.22486s-0.31843 0.36758-0.67807 0.43921c-0.35964 0.0716-0.89803 2e-3 -1.4948-0.18225-0.59679-0.18427-1.252-0.48326-1.8596-0.6969-0.60757-0.21365-1.1674-0.34189-1.7203-0.36629s-1.0988 0.0551-1.5203 0.19469c-0.42152 0.13964-0.71851 0.33934-0.97751 0.61618s-0.47998 0.63064-0.60536 0.97444-0.15528 0.67743-0.08666 0.98867c0.06863 0.31124 0.23557 0.6001 0.45604 0.86559 0.22048 0.26548 0.49442 0.50769 0.73469 0.72309s0.44687 0.40398 0.52463 0.70758c0.07775 0.3036 0.02694 0.72204-0.09499 1.8132-0.12193 1.0912-0.31496 2.855-0.54053 4.6179s-0.48363 3.5249-0.69526 4.9425c-0.21163 1.4177-0.3768 2.491-0.51254 3.4045-0.13574 0.91358-0.24206 1.6674-0.36391 2.3027-0.12185 0.63527-0.25919 1.152-0.41936 1.6784-0.16018 0.52637-0.34316 1.0624-0.60493 1.582-0.26178 0.51963-0.60229 1.023-1.0152 1.5669-0.41292 0.54395-0.8982 1.1285-1.4567 1.7186-0.55851 0.59007-1.1902 1.1857-1.8379 1.8198-0.64766 0.63409-1.3112 1.3066-1.8988 1.9428-0.58753 0.63622-1.099 1.236-1.66 2.0418-0.56105 0.80578-1.1717 1.8174-1.6589 2.7273-0.48724 0.90993-0.85108 1.718-1.1608 2.6066-0.30972 0.88852-0.56532 1.8574-0.80145 2.9909-0.23612 1.1336-0.45278 2.4317-0.6463 4.1026-0.19351 1.6709-0.3639 3.7144-0.42001 5.2879-0.0561 1.5735 2e-3 2.6769 0.10409 4.0405 0.10206 1.3636 0.24804 2.9872 0.50406 4.6813s0.62204 3.4589 0.997 4.9022 0.75883 2.5654 1.4144 4.1206c0.65553 1.5552 1.5827 3.5435 2.3996 5.1848 0.81692 1.6413 1.5236 2.9355 2.1702 4.0319 0.64661 1.0964 1.2331 1.995 2.1524 3.2919 0.91927 1.2968 2.1712 2.9918 3.6059 4.6864s3.0521 3.3888 4.6106 4.9148c1.5584 1.526 3.0578 2.8837 4.8395 4.4172s3.8455 3.2427 6.0538 4.9642 4.5611 3.4553 6.9918 5.0886 4.9392 3.1662 7.3453 4.5326 4.7095 2.5666 6.7236 3.5359c2.0141 0.96934 3.7386 1.7079 5.6562 2.4021 1.9176 0.69417 4.028 1.344 5.5423 1.7504s2.4325 0.56962 3.6919 0.83042c1.2594 0.26081 2.86 0.61924 4.3126 0.95343s2.7572 0.64411 4.0748 1.0002c1.3176 0.35614 2.648 0.75844 4.4445 1.1196s4.0588 0.68134 6.4166 0.92416 4.8108 0.40832 6.8142 0.5178 3.557 0.16294 4.9487 0.16127c1.3916-2e-3 2.6213-0.0584 3.9733-0.21565 1.352-0.1572 2.8263-0.41481 4.1346-0.7065s2.4505-0.61745 3.5998-1.007c1.1494-0.38952 2.3058-0.84281 3.3679-1.3655 1.062-0.52265 2.0297-1.1147 2.763-1.5183 0.7333-0.40361 1.2322-0.61872 1.6368-0.92792s0.71492-0.71262 1.1842-1.1759c0.46929-0.46331 1.0975-0.98639 1.5304-1.4218s0.67075-0.78324 0.83526-1.1189c0.1645-0.33563 0.2557-0.65916 0.18669-1.0209-0.069-0.3617-0.29846-0.76155-0.38007-1.1749-0.0816-0.41335-0.0151-0.84019-0.0402-1.1997s-0.14195-0.65161-0.38642-0.81801c-0.24446-0.16639-0.61651-0.20675-0.93533-0.15634-0.31882 0.0504-0.58418 0.19155-0.96928-0.19365-0.38511-0.38521-0.89018-1.297-1.5993-2.149-0.70912-0.85198-1.6223-1.644-2.9495-2.4846-1.3272-0.84063-3.0683-1.7297-5.1582-2.552s-4.5283-1.5777-7.0868-2.2682-5.2369-1.3162-7.8942-1.957-5.2935-1.2966-7.9166-2.0461c-2.6231-0.74949-5.233-1.5926-7.8968-2.6036-2.6638-1.0111-5.3816-2.1902-8.0993-3.3692-2.0377-1.0082-4.0752-2.0164-6.3537-3.2885s-4.7978-2.8082-6.9924-4.2487c-2.1946-1.4404-4.0644-2.7852-5.5924-4.0016s-2.7143-2.3045-3.9172-3.4482c-1.2029-1.1436-2.4224-2.3428-3.6842-3.7724s-2.5658-3.0895-3.6222-4.5183-1.8652-2.6264-2.642-4.0947c-0.77686-1.4683-1.5218-3.2074-2.3593-5.7263s-1.7678-5.8176-2.233-7.4672-0.46519-1.6496-0.73609-3.0918z" clip-path="url(#clipPath98506-5)"/>
     <path transform="translate(-39.632,459.59)" d="m113.43-339.94c-0.27091-1.4422-0.81279-4.3269-1.4372-6.8174-0.62438-2.4905-1.3313-4.5868-2.2281-6.4217s-1.9836-3.408-2.6788-4.4372c-0.69514-1.0292-0.99861-1.5144-1.2296-2.2724-0.23097-0.75801-0.38931-1.7889-0.41709-2.9841-0.0278-1.1952 0.0751-2.5546 0.27879-4.7299 0.20372-2.1753 0.50831-5.1663 0.74046-7.1801 0.23214-2.0138 0.39185-3.0503 0.51834-3.788s0.21977-1.1766 0.38253-1.6815c0.16276-0.50491 0.39503-1.0758 0.65362-1.6027s0.54349-1.0099 0.77153-1.3935c0.22805-0.38363 0.39924-0.66794 0.39401-0.97447-5e-3 -0.30653-0.18717-0.63536-0.44145-0.96827-0.25428-0.33292-0.58093-0.66981-0.85115-0.91211-0.27021-0.2423-0.48398-0.38993-0.63778-0.41571-0.1538-0.0258-0.24727 0.0703-0.38456 0.22485-0.1373 0.15456-0.31844 0.36758-0.67808 0.43921-0.35964 0.0716-0.89803 2e-3 -1.4948-0.18225-0.59679-0.18427-1.252-0.48325-1.8596-0.6969-0.60758-0.21365-1.1674-0.34188-1.7203-0.36629-0.55293-0.0244-1.0988 0.0551-1.5203 0.19469-0.42152 0.13963-0.71851 0.33934-0.97752 0.61618-0.25901 0.27683-0.47998 0.63064-0.60537 0.97444s-0.15528 0.67743-0.08666 0.98867c0.06863 0.31124 0.23557 0.6001 0.45604 0.86559s0.49442 0.50768 0.7347 0.72309c0.24028 0.2154 0.44687 0.40399 0.52462 0.70758 0.07775 0.3036 0.02694 0.72204-0.09499 1.8132-0.12193 1.0912-0.31496 2.855-0.54053 4.6179s-0.48363 3.5249-0.69526 4.9425c-0.21163 1.4177-0.3768 2.491-0.51255 3.4045-0.13574 0.91358-0.24206 1.6674-0.3639 2.3027-0.12185 0.63527-0.25919 1.152-0.41937 1.6784s-0.34316 1.0624-0.60493 1.582c-0.26178 0.51963-0.6023 1.023-1.0152 1.5669-0.41291 0.54395-0.8982 1.1285-1.4567 1.7186-0.55851 0.59008-1.1902 1.1857-1.8379 1.8198-0.64766 0.63409-1.3112 1.3066-1.8988 1.9428-0.58753 0.63621-1.099 1.236-1.66 2.0418s-1.1717 1.8174-1.6589 2.7273-0.85108 1.718-1.1608 2.6066c-0.30972 0.88853-0.56532 1.8574-0.80145 2.9909-0.23612 1.1336-0.45278 2.4318-0.64629 4.1026-0.19351 1.6709-0.3639 3.7144-0.42001 5.2879s2e-3 2.6769 0.10409 4.0405c0.10206 1.3636 0.24804 2.9872 0.50406 4.6813 0.25602 1.6942 0.62204 3.4589 0.997 4.9022s0.75882 2.5654 1.4144 4.1206c0.65553 1.5552 1.5826 3.5435 2.3996 5.1848 0.81692 1.6413 1.5236 2.9355 2.1702 4.0319 0.64661 1.0964 1.2331 1.995 2.1524 3.2919 0.91927 1.2968 2.1712 2.9918 3.6059 4.6864s3.0521 3.3888 4.6106 4.9148 3.0578 2.8837 4.8395 4.4172 3.8455 3.2427 6.0538 4.9642 4.5611 3.4553 6.9918 5.0886 4.9392 3.1662 7.3453 4.5326 4.7095 2.5666 6.7236 3.5359c2.0141 0.96934 3.7386 1.7079 5.6562 2.4021s4.028 1.344 5.5424 1.7504 2.4325 0.56962 3.6919 0.83042c1.2594 0.26081 2.86 0.61924 4.3126 0.95343s2.7572 0.64411 4.0748 1.0002c1.3176 0.35614 2.648 0.75844 4.4445 1.1196s4.0588 0.68134 6.4166 0.92416 4.8108 0.40832 6.8142 0.5178 3.557 0.16294 4.9487 0.16127c1.3916-2e-3 2.6213-0.0584 3.9733-0.21565 1.352-0.1572 2.8263-0.41481 4.1346-0.7065s2.4505-0.61745 3.5998-1.007c1.1494-0.38952 2.3058-0.84281 3.3679-1.3655 1.062-0.52265 2.0297-1.1147 2.763-1.5183 0.7333-0.40361 1.2322-0.61872 1.6368-0.92792s0.71492-0.71262 1.1842-1.1759c0.46929-0.46331 1.0975-0.98639 1.5304-1.4218s0.67075-0.78324 0.83526-1.1189c0.1645-0.33563 0.2557-0.65916 0.18669-1.0209-0.069-0.3617-0.29846-0.76155-0.38007-1.1749-0.0816-0.41335-0.0151-0.84019-0.0402-1.1997s-0.14195-0.65161-0.38642-0.81801c-0.24446-0.16639-0.61651-0.20675-0.93533-0.15634-0.31882 0.0504-0.58418 0.19155-0.96928-0.19365-0.38511-0.38521-0.89018-1.297-1.5993-2.149-0.70912-0.85198-1.6223-1.644-2.9495-2.4846-1.3272-0.84063-3.0683-1.7297-5.1582-2.552s-4.5283-1.5777-7.0868-2.2682-5.2369-1.3162-7.8942-1.957-5.2935-1.2966-7.9166-2.0461c-2.6231-0.74949-5.233-1.5926-7.8968-2.6036-2.6638-1.0111-5.3816-2.1902-8.0993-3.3692-2.0377-1.0082-4.0752-2.0164-6.3537-3.2885s-4.7978-2.8082-6.9924-4.2487c-2.1946-1.4404-4.0644-2.7852-5.5924-4.0016s-2.7143-2.3045-3.9172-3.4482c-1.2029-1.1436-2.4224-2.3428-3.6842-3.7724s-2.5658-3.0895-3.6222-4.5183-1.8652-2.6264-2.642-4.0947c-0.77686-1.4683-1.5218-3.2074-2.3593-5.7263s-1.7678-5.8176-2.233-7.4672-0.46519-1.6496-0.73609-3.0918z" clip-path="url(#clipPath98498-2)"/>
     <path transform="translate(-39.632,459.59)" d="m113.43-339.94c-0.27091-1.4422-0.81279-4.3269-1.4372-6.8174-0.62438-2.4905-1.3313-4.5868-2.2281-6.4217s-1.9836-3.408-2.6787-4.4373c-0.69514-1.0292-0.99862-1.5144-1.2296-2.2724-0.23097-0.75801-0.38931-1.7889-0.41709-2.9841-0.0278-1.1952 0.0751-2.5546 0.27879-4.7299 0.20372-2.1753 0.50831-5.1663 0.74046-7.1801 0.23214-2.0138 0.39185-3.0503 0.51834-3.788s0.21978-1.1766 0.38254-1.6815 0.39503-1.0758 0.65361-1.6027c0.25859-0.52694 0.54349-1.0099 0.77153-1.3935 0.22805-0.38363 0.39924-0.66794 0.39401-0.97447-5e-3 -0.30653-0.18717-0.63536-0.44145-0.96827-0.25428-0.33292-0.58093-0.66981-0.85115-0.91211-0.27021-0.2423-0.48398-0.38993-0.63778-0.41572-0.15379-0.0258-0.24726 0.0703-0.38456 0.22486s-0.31844 0.36758-0.67808 0.43921c-0.35964 0.0716-0.89802 2e-3 -1.4948-0.18225-0.5968-0.18427-1.252-0.48326-1.8596-0.6969-0.60758-0.21365-1.1674-0.34189-1.7203-0.36629s-1.0988 0.0551-1.5203 0.19469c-0.42152 0.13963-0.71851 0.33934-0.97752 0.61618-0.25901 0.27683-0.47998 0.63064-0.60537 0.97444s-0.15528 0.67743-0.08666 0.98867c0.06863 0.31124 0.23557 0.6001 0.45604 0.86559s0.49442 0.50768 0.7347 0.72309c0.24028 0.2154 0.44687 0.40399 0.52462 0.70758 0.07775 0.3036 0.02694 0.72204-0.09499 1.8132-0.12193 1.0912-0.31496 2.855-0.54053 4.6179s-0.48363 3.5249-0.69526 4.9425c-0.21163 1.4177-0.3768 2.491-0.51255 3.4045-0.13574 0.91358-0.24206 1.6674-0.3639 2.3027-0.12185 0.63527-0.25919 1.152-0.41937 1.6784s-0.34316 1.0624-0.60493 1.582c-0.26178 0.51963-0.60229 1.023-1.0152 1.5669s-0.8982 1.1285-1.4567 1.7186c-0.55851 0.59008-1.1902 1.1857-1.8379 1.8198-0.64766 0.63409-1.3112 1.3066-1.8988 1.9428-0.58753 0.63621-1.099 1.236-1.66 2.0418s-1.1717 1.8174-1.6589 2.7273-0.85108 1.718-1.1608 2.6066-0.56533 1.8574-0.80145 2.9909c-0.23612 1.1336-0.45278 2.4318-0.64629 4.1026-0.19351 1.6709-0.3639 3.7144-0.42001 5.2879s2e-3 2.6769 0.10409 4.0405c0.10206 1.3636 0.24804 2.9872 0.50406 4.6813 0.25602 1.6942 0.62204 3.4589 0.997 4.9022s0.75882 2.5654 1.4144 4.1206c0.65553 1.5552 1.5826 3.5435 2.3996 5.1848 0.81692 1.6413 1.5236 2.9355 2.1702 4.0319 0.64661 1.0964 1.2331 1.995 2.1524 3.2919 0.91927 1.2968 2.1712 2.9918 3.6059 4.6864s3.0521 3.3888 4.6106 4.9148 3.0578 2.8837 4.8395 4.4172 3.8455 3.2427 6.0538 4.9642 4.5611 3.4553 6.9918 5.0886 4.9392 3.1661 7.3453 4.5326 4.7095 2.5666 6.7236 3.5359c2.0141 0.96934 3.7386 1.7079 5.6562 2.4021 1.9176 0.69417 4.028 1.344 5.5423 1.7504s2.4325 0.56962 3.6919 0.83042c1.2594 0.26081 2.86 0.61924 4.3126 0.95343s2.7572 0.64411 4.0748 1.0002c1.3176 0.35614 2.648 0.75844 4.4445 1.1196s4.0588 0.68134 6.4166 0.92416 4.8108 0.40832 6.8142 0.5178 3.557 0.16294 4.9487 0.16127c1.3916-2e-3 2.6213-0.0584 3.9733-0.21565 1.352-0.1572 2.8263-0.41481 4.1346-0.7065s2.4505-0.61745 3.5998-1.007c1.1494-0.38952 2.3058-0.84281 3.3679-1.3655 1.062-0.52265 2.0297-1.1147 2.763-1.5183 0.7333-0.40361 1.2322-0.61872 1.6368-0.92792s0.71492-0.71262 1.1842-1.1759c0.46929-0.46331 1.0975-0.98639 1.5304-1.4218s0.67075-0.78324 0.83526-1.1189c0.1645-0.33563 0.2557-0.65916 0.18669-1.0209-0.069-0.3617-0.29846-0.76155-0.38007-1.1749-0.0816-0.41335-0.0151-0.84019-0.0402-1.1997s-0.14195-0.65161-0.38642-0.81801c-0.24446-0.16639-0.61651-0.20675-0.93533-0.15634-0.31882 0.0504-0.58418 0.19155-0.96928-0.19365-0.38511-0.38521-0.89018-1.297-1.5993-2.149-0.70912-0.85198-1.6223-1.644-2.9495-2.4846-1.3272-0.84063-3.0683-1.7297-5.1582-2.552s-4.5283-1.5777-7.0868-2.2682-5.2369-1.3162-7.8942-1.957-5.2935-1.2966-7.9166-2.0461c-2.6231-0.74949-5.233-1.5926-7.8968-2.6036-2.6638-1.0111-5.3816-2.1902-8.0993-3.3692-2.0377-1.0082-4.0752-2.0164-6.3537-3.2885s-4.7978-2.8082-6.9924-4.2487c-2.1946-1.4404-4.0644-2.7852-5.5924-4.0016s-2.7143-2.3045-3.9172-3.4482c-1.2029-1.1436-2.4224-2.3428-3.6843-3.7724-1.2618-1.4296-2.5658-3.0895-3.6222-4.5183s-1.8652-2.6264-2.642-4.0947c-0.77686-1.4683-1.5218-3.2074-2.3593-5.7263s-1.7678-5.8176-2.233-7.4672-0.46519-1.6496-0.73609-3.0918z" clip-path="url(#clipPath98494-1)"/>
     <path transform="translate(-39.632,459.59)" d="m113.43-339.94c-0.27091-1.4422-0.81279-4.3269-1.4372-6.8174-0.62438-2.4905-1.3313-4.5868-2.2281-6.4217s-1.9836-3.408-2.6788-4.4372c-0.69514-1.0292-0.99861-1.5144-1.2296-2.2724-0.23097-0.75801-0.38931-1.7889-0.41709-2.9841-0.0278-1.1952 0.0751-2.5546 0.27879-4.7299 0.20372-2.1753 0.50831-5.1663 0.74046-7.1801 0.23214-2.0138 0.39185-3.0503 0.51834-3.788s0.21977-1.1766 0.38253-1.6815c0.16276-0.50491 0.39503-1.0758 0.65362-1.6027s0.54349-1.0099 0.77153-1.3935c0.22805-0.38363 0.39924-0.66794 0.39401-0.97447-5e-3 -0.30652-0.18717-0.63535-0.44145-0.96827-0.25429-0.33292-0.58093-0.6698-0.85115-0.91211-0.27022-0.2423-0.48399-0.38993-0.63779-0.41572-0.15379-0.0258-0.24726 0.0703-0.38456 0.22486-0.13729 0.15455-0.31843 0.36758-0.67807 0.43921-0.35964 0.0716-0.89803 2e-3 -1.4948-0.18225-0.59679-0.18427-1.252-0.48326-1.8596-0.6969-0.60757-0.21365-1.1674-0.34189-1.7203-0.36629s-1.0988 0.0551-1.5203 0.19469c-0.42152 0.13963-0.71852 0.33934-0.97752 0.61618-0.259 0.27683-0.47998 0.63064-0.60536 0.97444s-0.15528 0.67743-0.08666 0.98867c0.06863 0.31124 0.23557 0.6001 0.45604 0.86559 0.22048 0.26548 0.49442 0.50768 0.7347 0.72309 0.24028 0.2154 0.44687 0.40399 0.52462 0.70758 0.07775 0.3036 0.02694 0.72204-0.09499 1.8132-0.12193 1.0912-0.31496 2.855-0.54053 4.6179-0.22556 1.7629-0.48363 3.5249-0.69526 4.9425-0.21163 1.4177-0.3768 2.491-0.51255 3.4045-0.13575 0.91358-0.24206 1.6674-0.36391 2.3027-0.12185 0.63527-0.25919 1.152-0.41936 1.6784s-0.34316 1.0624-0.60493 1.582c-0.26178 0.51963-0.60229 1.023-1.0152 1.5669-0.41291 0.54395-0.8982 1.1285-1.4567 1.7186-0.55851 0.59008-1.1902 1.1857-1.8379 1.8198-0.64766 0.63409-1.3112 1.3066-1.8988 1.9428-0.58753 0.63621-1.099 1.236-1.66 2.0418s-1.1717 1.8174-1.6589 2.7273c-0.48724 0.90993-0.85108 1.718-1.1608 2.6066-0.30972 0.88853-0.56532 1.8574-0.80145 2.9909-0.23612 1.1336-0.45278 2.4317-0.6463 4.1026-0.19351 1.6709-0.3639 3.7144-0.42001 5.2879-0.0561 1.5735 2e-3 2.6769 0.10409 4.0405 0.10206 1.3636 0.24804 2.9872 0.50406 4.6813 0.25602 1.6942 0.62204 3.4589 0.997 4.9022s0.75883 2.5654 1.4144 4.1206c0.65553 1.5552 1.5827 3.5435 2.3996 5.1848 0.81692 1.6413 1.5236 2.9355 2.1702 4.0319 0.64661 1.0964 1.2331 1.995 2.1524 3.2919 0.91927 1.2968 2.1712 2.9918 3.6059 4.6864s3.0521 3.3888 4.6106 4.9148c1.5584 1.526 3.0578 2.8837 4.8394 4.4171 1.7817 1.5335 3.8455 3.2427 6.0538 4.9642 2.2084 1.7215 4.5611 3.4553 6.9918 5.0886s4.9392 3.1662 7.3453 4.5326 4.7095 2.5666 6.7236 3.5359c2.0141 0.96934 3.7386 1.7079 5.6562 2.4021 1.9176 0.69417 4.028 1.344 5.5423 1.7504s2.4325 0.56962 3.6919 0.83042c1.2594 0.26081 2.86 0.61924 4.3126 0.95343s2.7572 0.64411 4.0748 1.0002c1.3176 0.35614 2.648 0.75844 4.4445 1.1196s4.0588 0.68134 6.4166 0.92416 4.8108 0.40832 6.8142 0.5178 3.557 0.16294 4.9487 0.16127c1.3916-2e-3 2.6213-0.0584 3.9733-0.21565 1.352-0.1572 2.8263-0.41481 4.1346-0.7065s2.4505-0.61745 3.5998-1.007c1.1494-0.38952 2.3058-0.84281 3.3679-1.3655 1.062-0.52265 2.0297-1.1147 2.763-1.5183 0.7333-0.40361 1.2322-0.61872 1.6368-0.92792s0.71492-0.71262 1.1842-1.1759c0.46929-0.46331 1.0975-0.98639 1.5304-1.4218s0.67075-0.78324 0.83526-1.1189c0.1645-0.33563 0.2557-0.65916 0.18669-1.0209-0.069-0.3617-0.29846-0.76155-0.38007-1.1749-0.0816-0.41335-0.0151-0.84019-0.0402-1.1997s-0.14195-0.65161-0.38642-0.81801c-0.24446-0.16639-0.61651-0.20675-0.93533-0.15634-0.31882 0.0504-0.58418 0.19155-0.96928-0.19365-0.38511-0.38521-0.89018-1.297-1.5993-2.149-0.70912-0.85198-1.6223-1.644-2.9495-2.4846-1.3272-0.84063-3.0683-1.7297-5.1582-2.552s-4.5283-1.5777-7.0868-2.2682-5.2369-1.3162-7.8942-1.957-5.2935-1.2966-7.9166-2.0461c-2.6231-0.74949-5.233-1.5926-7.8968-2.6036-2.6638-1.0111-5.3816-2.1902-8.0993-3.3692-2.0377-1.0082-4.0752-2.0164-6.3537-3.2885s-4.7978-2.8082-6.9924-4.2487c-2.1946-1.4404-4.0644-2.7852-5.5924-4.0016s-2.7143-2.3045-3.9172-3.4482c-1.2029-1.1436-2.4224-2.3428-3.6842-3.7724s-2.5658-3.0895-3.6222-4.5183-1.8652-2.6264-2.642-4.0947c-0.77686-1.4683-1.5218-3.2074-2.3593-5.7263-0.83759-2.5189-1.7678-5.8176-2.233-7.4672s-0.4652-1.6496-0.7361-3.0918z" clip-path="url(#clipPath98490-7)"/>
     <path d="m86.19 184.01c0.55118 0.30385 1.3922 0.76424 3.2251 1.6644 1.833 0.90016 4.6578 2.24 7.275 3.3015s5.0266 1.8445 8.633 2.8036c3.6063 0.95906 8.4094 2.0941 13.09 2.9213 4.6807 0.82718 9.2387 1.3465 12.914 1.6365 3.6756 0.29006 6.4686 0.35087 8.9723 0.1872 2.5036-0.16368 4.7178-0.55176 7.0238-1.1967 2.306-0.64492 4.7038-1.5466 6.427-2.3153 1.7233-0.76874 2.772-1.4045 3.7975-2.2012 1.0254-0.7967 2.0276-1.7543 2.6489-2.4759 0.62132-0.72155 0.86188-1.2071 1.0192-1.7545s0.23122-1.1567 0.12854-1.6956c-0.10268-0.53887-0.38222-1.0073-0.53001-1.2416-0.1478-0.23435-0.1641-0.23435-0.32979-0.23435s-0.48094 0-13.068 3.3e-4c-12.587 3.4e-4 -37.444 1e-3 -62.302 2e-3 0.26137 0.14731 0.52305 0.2948 1.0742 0.59866z"/>
    </g>
   </g>
   <g fill="none" stroke-linecap="round" stroke-linejoin="round" stroke-width="34.995">
    <path d="m2118.9-1407.4a156.67 156.67 0 0 1 49.48 140.7 156.67 156.67 0 0 1-90.744 118.37" stroke="#00d666"/>
    <path d="m1899.9-1399a156.67 156.67 0 0 1 163.15-41.057 156.67 156.67 0 0 1 106.27 130.42" stroke="#83e05e"/>
    <path d="m1903.1-1180.4a156.67 156.67 0 0 1-37.544-161.98 156.67 156.67 0 0 1 129.31-104.53" stroke="#00d666"/>
    <path d="m2046.3-1138.1a156.67 156.67 0 0 1-129.99-30.549 156.67 156.67 0 0 1-59.217-119.69" stroke="#83e05e"/>
    <path d="m2110.6-1168.2a156.67 156.67 0 0 1-88.958 33.348" stroke="#00d666"/>
   </g>
  </g>
 </g>
</svg>
